<?xml version="1.0" standalone="no"?>
<!DOCTYPE svg PUBLIC "-//W3C//DTD SVG 20010904//EN"
 "http://www.w3.org/TR/2001/REC-SVG-20010904/DTD/svg10.dtd">
<svg version="1.0" xmlns="http://www.w3.org/2000/svg"
 width="260.000000pt" height="260.000000pt" viewBox="0 0 260.000000 260.000000"
 preserveAspectRatio="xMidYMid meet">
<metadata>
Created by potrace 1.14, written by Peter Selinger 2001-2017
</metadata>
<g transform="translate(0.000000,260.000000) scale(0.100000,-0.100000)"
fill="#000000" stroke="none">
<path d="M769 2596 c-2 -2 -23 -6 -46 -10 -126 -17 -288 -93 -404 -189 -114
-94 -202 -215 -254 -347 -65 -162 -64 -147 -65 -1148 l0 -902 895 0 c979 0
991 1 1141 59 115 45 211 108 299 196 186 186 268 392 261 650 -4 143 -28 242
-88 360 -141 282 -396 455 -717 488 -31 3 -37 15 -51 112 -46 318 -276 585
-595 693 -33 11 -76 23 -95 27 -38 7 -275 16 -281 11z"/>
</g>
</svg>
