<?xml version="1.0" standalone="no"?>
<!DOCTYPE svg PUBLIC "-//W3C//DTD SVG 20010904//EN"
 "http://www.w3.org/TR/2001/REC-SVG-20010904/DTD/svg10.dtd">
<svg version="1.0" xmlns="http://www.w3.org/2000/svg"
 width="260.000000pt" height="260.000000pt" viewBox="0 0 260.000000 260.000000"
 preserveAspectRatio="xMidYMid meet">
<metadata>
Created by potrace 1.14, written by Peter Selinger 2001-2017
</metadata>
<g transform="translate(0.000000,260.000000) scale(0.100000,-0.100000)"
fill="#000000" stroke="none">
<path d="M690 2581 c-132 -29 -225 -70 -330 -146 -126 -91 -244 -243 -299
-385 -60 -155 -59 -131 -60 -1133 l-1 -918 937 4 c516 1 950 6 965 10 35 9
134 42 178 58 65 25 198 117 267 186 117 117 197 264 233 431 26 117 21 286
-10 402 -94 343 -408 612 -745 636 -38 3 -75 7 -81 9 -6 2 -12 29 -13 60 -3
69 -40 222 -72 290 -83 181 -230 335 -406 424 -163 81 -385 110 -563 72z m345
-176 c192 -51 349 -174 442 -345 48 -89 71 -167 80 -277 l5 -61 -59 -7 c-48
-6 -175 -29 -279 -51 -58 -12 -166 -50 -231 -80 -155 -75 -263 -238 -265 -403
-1 -75 3 -98 28 -161 58 -149 219 -279 369 -298 125 -16 264 33 372 132 72 66
131 188 172 356 17 69 32 141 35 160 4 29 13 93 21 145 1 6 3 18 3 29 2 17 8
18 69 12 295 -29 534 -234 608 -521 23 -90 24 -246 1 -335 -9 -36 -35 -103
-57 -149 -58 -118 -179 -239 -299 -299 -159 -79 -106 -75 -1025 -77 -451 -2
-827 -1 -836 1 -14 4 -15 84 -14 832 1 455 5 841 9 857 14 61 57 177 75 203
10 15 30 46 45 68 35 54 127 141 192 182 157 99 366 133 539 87z m491 -1037
c-41 -212 -89 -337 -154 -394 -94 -85 -211 -104 -311 -49 -97 53 -161 153
-161 249 1 101 75 211 174 257 76 35 228 76 366 98 l105 17 3 -22 c2 -13 -8
-83 -22 -156z"/>
</g>
</svg>
